<svg xmlns="http://www.w3.org/2000/svg" viewBox="0 0 64 64" role="img" aria-labelledby="title desc">
  <title id="title">Maria Teresa Condino monogram</title>
  <desc id="desc">An elegant MT monogram with a rose petal detail</desc>
  <defs>
    <linearGradient id="plum" x1="8" y1="5" x2="56" y2="59" gradientUnits="userSpaceOnUse">
      <stop stop-color="#8d4f70"/>
      <stop offset="1" stop-color="#4d2942"/>
    </linearGradient>
    <linearGradient id="rose" x1="44" y1="8" x2="57" y2="23" gradientUnits="userSpaceOnUse">
      <stop stop-color="#f3c5cf"/>
      <stop offset="1" stop-color="#d27c93"/>
    </linearGradient>
  </defs>
  <circle cx="32" cy="32" r="30" fill="url(#plum)"/>
  <circle cx="32" cy="32" r="27.5" fill="none" stroke="#f8e9ed" stroke-opacity=".34"/>
  <path d="M47 15c2.2-5 7.8-6.2 10.8-4.8.2 4.7-3 9.6-8.6 9.9-1.7-1.2-2.5-2.8-2.2-5.1Z" fill="url(#rose)"/>
  <path d="M46.9 15.2c-.2-4.5-3.7-7.2-7.1-7.4-1.4 4.3.6 8.7 5 10 .9-.6 1.6-1.5 2.1-2.6Z" fill="#e7a8b8"/>
  <path d="M47 15c2.5.7 4.6 2.1 6.2 4.1" fill="none" stroke="#fbeef1" stroke-width="1" stroke-linecap="round"/>
  <text x="31" y="41" text-anchor="middle" fill="#fffaf6" font-family="Georgia, 'Times New Roman', serif" font-size="24" font-weight="700" letter-spacing="-1.5">MT</text>
  <path d="M17 46.5h30" stroke="#d998aa" stroke-width="1.3" stroke-linecap="round"/>
</svg>
