<svg xmlns="http://www.w3.org/2000/svg" viewBox="0 0 64 64" role="img" aria-labelledby="title desc">
  <title id="title">Maria Teresa Condino winter monogram</title>
  <desc id="desc">An elegant MT monogram with a crystalline snowflake</desc>
  <defs>
    <linearGradient id="winter" x1="8" y1="6" x2="57" y2="59" gradientUnits="userSpaceOnUse">
      <stop stop-color="#76516d"/>
      <stop offset="1" stop-color="#38283a"/>
    </linearGradient>
    <linearGradient id="ice" x1="43" y1="7" x2="58" y2="23" gradientUnits="userSpaceOnUse">
      <stop stop-color="#ffffff"/>
      <stop offset="1" stop-color="#a9d5e9"/>
    </linearGradient>
  </defs>
  <circle cx="32" cy="32" r="30" fill="url(#winter)"/>
  <circle cx="32" cy="32" r="27.5" fill="none" stroke="#d9eef7" stroke-opacity=".56"/>
  <g transform="translate(49 15)" stroke="url(#ice)" stroke-width="2" stroke-linecap="round">
    <path d="M0-8V8M-7-4 7 4M7-4-7 4"/>
    <path d="m0-8-2 3m2-3 2 3M0 8l-2-3m2 3 2-3M-7-4l3 .1M-7-4l1 2.7M7 4l-3-.1M7 4 6 1.3M7-4l-3 .1M7-4 6-1.3M-7 4l3-.1M-7 4l1-2.7" stroke-width="1.25"/>
  </g>
  <text x="30.5" y="41" text-anchor="middle" fill="#fffaf6" font-family="Georgia, 'Times New Roman', serif" font-size="24" font-weight="700" letter-spacing="-1.5">MT</text>
  <path d="M17 46.5h27" stroke="#b9dce9" stroke-width="1.3" stroke-linecap="round"/>
</svg>
